<?xml version="1.0" encoding="UTF-8" standalone="no"?>
<!-- Created with Inkscape (http://www.inkscape.org/) -->

<svg
   version="1.1"
   id="svg2"
   width="1910.4133"
   height="579.17731"
   viewBox="0 0 1910.4133 579.17731"
   xmlns="http://www.w3.org/2000/svg"
   xmlns:svg="http://www.w3.org/2000/svg">
  <defs
     id="defs6">
    <clipPath
       clipPathUnits="userSpaceOnUse"
       id="clipPath18">
      <path
         d="M 0,434.383 H 1432.814 V 0 H 0 Z"
         id="path16" />
    </clipPath>
  </defs>
  <g
     id="g10"
     transform="matrix(1.3333333,0,0,-1.3333333,0,579.17733)"
     style="display:inline">
    <g
       id="g12">
      <g
         id="g14"
         clip-path="url(#clipPath18)">
        <g
           id="g20"
           transform="translate(473.5829,246.9909)">
          <path
             d="m 0,0 c 0,17.857 -13.561,28.536 -36.767,28.536 h -44.355 v -58.328 h 44.147 C -15.408,-29.792 0,-18.713 0,0"
             style="fill:#bd3632;fill-opacity:1;fill-rule:nonzero;stroke:none"
             id="path22" />
        </g>
        <g
           id="g24"
           transform="translate(291.5987,275.5265)">
          <path
             d="m 0,0 h -36.365 v -63.259 h 35.54 c 23.838,0 39.449,12.735 39.449,31.826 C 38.624,-10.679 23.215,0 0,0"
             style="fill:#bd3632;fill-opacity:1;fill-rule:nonzero;stroke:none"
             id="path26" />
        </g>
        <g
           id="g28"
           transform="translate(588.9399,277.9883)">
          <path
             d="m 0,0 c -32.869,0 -56.297,-26.287 -56.297,-59.156 0,-32.869 23.82,-59.555 56.691,-59.555 32.861,0 56.29,26.264 56.29,59.136 C 56.684,-26.687 32.852,0 0,0"
             style="fill:#bd3632;fill-opacity:1;fill-rule:nonzero;stroke:none"
             id="path30" />
        </g>
        <g
           id="g32"
           transform="translate(1203.2686,275.5187)">
          <path
             d="m 0,0 h -48.291 v -128.79 h -16.43 V 0 h -48.275 V 15.003 H 0 Z m -144.832,-128.79 h -16.217 V 15.003 h 16.217 z m -55.49,0 h -12.935 l -92.829,117.917 V -128.79 H -321.9 V 15.003 h 15.179 l 90.585,-115.222 V 15.003 h 15.814 z m -159.006,0 h -16.225 V 15.003 h 16.225 z M -408.885,0 h -87.111 v -51.352 h 77.87 v -14.78 h -77.87 v -62.658 h -16.213 V 15.003 h 103.324 z m -205.444,-131.238 c -43.77,0 -73.137,34.295 -73.137,74.133 0,39.852 29.778,74.585 73.531,74.585 43.771,0 73.13,-34.322 73.13,-74.167 0,-39.862 -29.78,-74.551 -73.524,-74.551 m -113.701,2.446 -41.706,55.871 h -41.072 v -55.871 h -16.247 v 143.82 h 61.838 c 31.625,0 51.979,-17.08 51.979,-42.958 0,-24.021 -16.448,-37.997 -39.04,-42.103 l 44.171,-58.759 z m -185.086,50.725 h -34.919 v -50.725 h -16.223 v 143.82 h 53.803 c 32.469,0 53.84,-17.294 53.84,-45.839 0,-31.21 -25.879,-47.256 -56.501,-47.256 M 12.3,158.864 h -998.323 c -119.982,0 -217.246,-97.24 -217.246,-217.191 0,-119.952 97.264,-217.192 217.246,-217.192 H 12.3 c 119.982,0 217.246,97.24 217.246,217.192 0,119.951 -97.264,217.191 -217.246,217.191"
             style="fill:#bd3632;fill-opacity:1;fill-rule:nonzero;stroke:none"
             id="path34" />
        </g>
      </g>
    </g>
    <path
       style="fill:#ffffff;stroke-width:0.379457"
       d="m 318.74372,287.61102 v -95.64035 l 41.26593,0.13624 c 44.41674,0.14664 42.88817,0.083 52.64963,2.19077 8.82242,1.90497 17.86554,5.64339 24.85442,10.27481 4.72634,3.13207 11.94527,10.32605 14.95648,14.9048 7.05713,10.73085 10.25942,23.85283 9.31595,38.17388 -0.98563,14.9612 -6.25108,26.79882 -16.46909,37.02532 -10.79829,10.80726 -24.35,17.01498 -44.01816,20.16369 -3.19502,0.5115 -8.50718,0.63631 -32.56173,0.76505 l -28.74385,0.15385 v 33.74615 33.74615 h -10.62479 -10.62479 z m 76.70494,8.34723 c 14.79543,-1.49669 26.64094,-6.66143 34.5215,-15.05165 3.04845,-3.24561 4.49534,-5.30815 6.41226,-9.14073 5.89566,-11.78739 5.3218,-28.25312 -1.3839,-39.70848 -3.396,-5.80139 -10.1301,-11.68743 -16.90209,-14.77352 -3.99644,-1.82124 -9.56413,-3.54358 -14.5052,-4.48713 -4.02012,-0.76768 -5.57193,-0.81131 -33.90543,-0.95327 l -29.6925,-0.14878 v 42.33054 42.33054 h 25.76286 c 15.20191,0 27.37373,-0.16296 29.6925,-0.39752 z"
       id="path1034"
       transform="matrix(0.75000002,0,0,-0.75000002,0,434.38301)" />
    <path
       style="fill:#ffffff;stroke-width:0.379457"
       d="m 318.74372,287.61102 v -95.64035 l 41.26593,0.13624 c 35.86686,0.11841 41.76239,0.21704 45.06049,0.75383 17.67532,2.8768 30.0451,8.38838 39.77483,17.72239 4.89485,4.69578 8.11359,9.0262 10.87016,14.62449 3.73681,7.58904 5.42043,13.94702 6.04136,22.81445 1.01892,14.55121 -2.16739,27.47395 -9.49497,38.50883 -3.41737,5.14635 -10.31561,11.928 -15.88619,15.61771 -9.63718,6.38324 -20.32597,10.32523 -33.93562,12.51534 -4.65376,0.7489 -6.72635,0.80711 -33.70256,0.94655 l -28.74385,0.14858 v 33.74615 33.74615 h -10.62479 -10.62479 z m 82.1524,7.6823 c 11.82207,-2.25545 20.65277,-6.37105 27.47104,-12.80306 10.16524,-9.58937 14.17825,-23.6432 11.06587,-38.75341 -1.98212,-9.62297 -7.58416,-17.89619 -15.82825,-23.37553 -6.59185,-4.3812 -15.64819,-7.27622 -25.74431,-8.22962 -2.43026,-0.2295 -15.38964,-0.3943 -31.0206,-0.39448 l -26.84657,-3.2e-4 v 42.33522 42.33523 l 28.3644,-0.15885 c 26.85747,-0.15041 28.58615,-0.20116 32.53842,-0.95518 z"
       id="path1038"
       transform="matrix(0.75000002,0,0,-0.75000002,0,434.38301)" />
    <path
       style="fill:#ffffff;stroke-width:0.379457"
       d="m 501.6419,287.6128 v -95.63858 l 46.57833,0.12846 c 51.36841,0.14167 48.76851,0.0274 59.29012,2.60537 23.91766,5.86018 39.68147,20.8192 44.44663,42.17753 1.23489,5.53498 1.41147,16.12608 0.37071,22.23459 -2.014,11.82067 -6.85092,21.05158 -15.18821,28.98559 -7.83876,7.4596 -19.20776,13.19389 -31.79978,16.03916 -2.19475,0.49592 -4.04437,0.95559 -4.11026,1.02148 -0.0659,0.0659 13.03482,17.61927 29.11269,39.00752 l 29.23249,38.88773 -12.83033,0.10001 c -11.84237,0.0923 -12.8788,0.0485 -13.4599,-0.56919 -0.34626,-0.36805 -12.88173,-17.10441 -27.85659,-37.19191 l -27.22702,-36.52272 h -27.46492 -27.46492 v 37.18677 37.18677 H 512.45642 501.6419 Z m 86.1367,1.89964 c 23.6416,-1.80324 39.22324,-13.27027 43.06736,-31.69465 0.74199,-3.55624 0.85266,-11.33439 0.21295,-14.96543 -3.01455,-17.11065 -16.07757,-27.73028 -37.52841,-30.50884 -3.97617,-0.51504 -9.63301,-0.60662 -37.47136,-0.60662 h -32.7882 v 39.08405 39.08405 l 29.6925,-7.6e-4 c 16.78646,-3.8e-4 31.91909,-0.17075 34.81516,-0.39164 z"
       id="path1040"
       transform="matrix(0.75000002,0,0,-0.75000002,0,434.38301)" />
    <path
       style="fill:#ffffff;stroke-width:0.379457"
       d="m 776.27124,386.28261 c -44.68185,-4.02854 -78.7299,-35.54895 -86.76305,-80.32199 -1.72603,-9.62011 -1.98287,-22.99019 -0.62042,-32.29772 2.69074,-18.3818 10.06535,-35.59907 21.24227,-49.59365 3.11815,-3.90423 10.10366,-10.84135 14.44274,-14.3427 21.24955,-17.14698 49.7007,-24.27874 78.26546,-19.61854 39.46753,6.43893 69.72124,35.95274 78.08493,76.17524 2.29978,11.06004 2.69923,26.32363 0.96577,36.90274 -5.36536,32.74421 -24.29643,59.20779 -52.39635,73.24441 -9.41513,4.7031 -19.57606,7.78454 -30.73601,9.32111 -4.94193,0.68044 -17.53095,0.97779 -22.48534,0.5311 z m 17.85195,-19.74925 c 32.27543,-3.51572 57.4734,-26.5842 64.73969,-59.26851 1.56914,-7.05808 1.92738,-10.63736 1.92738,-19.25713 0,-4.63997 -0.21097,-9.63112 -0.4892,-11.57343 -2.63648,-18.40552 -10.36823,-34.4245 -22.44381,-46.50008 -12.33821,-12.33821 -27.80542,-19.57381 -45.3617,-21.22033 -37.59804,-3.52612 -70.14252,19.63823 -79.68819,56.72006 -8.4281,32.74044 2.81644,67.6525 27.89901,86.6209 10.43223,7.88925 23.25679,12.9814 36.42118,14.46147 4.17182,0.46904 12.7671,0.47766 16.99564,0.017 z"
       id="path1042"
       transform="matrix(0.75000002,0,0,-0.75000002,0,434.38301)" />
    <path
       style="fill:#ffffff;stroke-width:0.379457"
       d="m 921.70059,287.62826 v -95.62311 h 68.68168 68.68173 v 9.86587 9.86588 h -58.0569 -58.05693 v 34.34084 34.34084 h 51.79586 51.79587 v 9.67615 9.67615 h -51.79587 -51.79586 v 41.74025 41.74025 h -10.62479 -10.62479 z"
       id="path1044"
       transform="matrix(0.75000002,0,0,-0.75000002,0,434.38301)" />
    <path
       style="fill:#ffffff;stroke-width:0.379457"
       d="m 1103.8399,287.62826 v -95.62311 h 10.6248 10.6247 v 95.62311 95.62312 h -10.6247 -10.6248 z"
       id="path1046"
       transform="matrix(0.75000002,0,0,-0.75000002,0,434.38301)" />
    <path
       style="fill:#ffffff;stroke-width:0.379457"
       d="m 1175.1777,287.62826 v -95.62311 h 10.0299 10.0298 l 7.5517,9.58128 c 4.1534,5.26971 18.5576,23.58324 32.0092,40.69674 13.4517,17.11351 37.2579,47.398 52.9026,67.29888 l 28.445,36.18342 0.096,-76.88016 0.096,-76.88016 h 10.4342 10.4341 v 95.62311 95.62312 l -8.6326,-0.0236 -8.6327,-0.0236 -61.472,-78.16543 c -33.8096,-42.99101 -61.6854,-78.34768 -61.9463,-78.57039 -0.3792,-0.32377 -0.4743,15.35086 -0.4743,78.18908 v 78.59402 h -10.4351 -10.4351 z"
       id="path1048"
       transform="matrix(0.75000002,0,0,-0.75000002,0,434.38301)" />
    <path
       style="fill:#ffffff;stroke-width:0.379457"
       d="m 1389.9503,287.62826 v -95.62311 h 10.6248 10.6248 v 95.62311 95.62312 h -10.6248 -10.6248 z"
       id="path1050"
       transform="matrix(0.75000002,0,0,-0.75000002,0,434.38301)" />
    <path
       style="fill:#ffffff;stroke-width:0.379457"
       d="M 1518.2067,297.49414 V 211.7369 h -32.2538 -32.2539 v -9.86588 -9.86587 h 75.3222 75.3222 v 9.86587 9.86588 h -32.2538 -32.2539 v 85.75724 85.75724 h -10.8145 -10.8145 z"
       id="path1052"
       transform="matrix(0.75000002,0,0,-0.75000002,0,434.38301)" />
  </g>
</svg>
